<svg width="487" height="170" viewBox="0 0 487 170" fill="none" xmlns="http://www.w3.org/2000/svg">
<g clip-path="url(#clip0_554_2857)">
<path fill-rule="evenodd" clip-rule="evenodd" d="M83.2795 117.307C47.6859 120.542 20.607 111.865 2.0427 91.2759C13.9 123.234 40.7082 141.077 82.4672 144.805C104.735 146.632 118.168 143.683 122.564 134.965C132.318 115.56 91.7152 116.52 83.2795 117.307ZM266.078 34.3397H250.095L219.827 106.216H235.714L257.487 48.6546L279.862 106.216H296.647L266.078 34.3397ZM331.407 94.4031C323.48 94.4031 318.751 92.6346 317.22 89.0977C315.689 85.5607 314.957 80.4548 315.025 73.7799V34.3397H299.961V77.1874C299.953 81.0514 300.323 84.9068 301.064 88.6987C301.838 92.521 303.708 96.0342 306.444 98.8081C309.769 102.345 313.411 104.464 317.371 105.165C321.578 105.895 325.841 106.256 330.11 106.243H349.188V94.306L331.407 94.4031ZM349.79 34.4367V46.9508H372.865V106.216H388.466V46.9508H411.74V34.4367H349.79ZM485.59 62.0691C485.245 59.5011 484.728 56.9595 484.041 54.4614C482.441 49.1884 479.945 44.875 476.552 41.5214C473.159 38.1678 468.796 35.8313 463.462 34.5122C461.27 33.8974 459.032 33.4629 456.77 33.2128C454.483 32.9442 452.18 32.8433 449.878 32.9109C447.741 32.9121 445.607 33.0454 443.487 33.3098C441.404 33.5639 439.335 33.9238 437.289 34.3882C431.83 35.79 427.419 38.1426 424.054 41.4459C420.69 44.7492 418.144 49.0374 416.415 54.3105V54.4129C415.637 56.8715 415.097 59.3992 414.801 61.9613C414.467 64.7344 414.3 67.5252 414.301 70.3184C414.295 73.0968 414.475 75.8726 414.839 78.627C415.17 81.1972 415.688 83.7398 416.388 86.2347C417.984 91.6264 420.514 95.9811 423.979 99.2987C427.444 102.616 431.871 104.903 437.262 106.157C439.274 106.621 441.309 106.981 443.358 107.235C445.411 107.504 447.479 107.639 449.55 107.64C451.861 107.668 454.172 107.578 456.474 107.37C458.697 107.141 460.901 106.756 463.07 106.216C468.528 104.947 472.988 102.67 476.45 99.385C479.911 96.0997 482.441 91.745 484.041 86.3209C484.795 83.7682 485.335 81.1567 485.655 78.5138C485.992 75.7229 486.159 72.914 486.155 70.1027C486.15 67.4151 485.961 64.7309 485.59 62.0691ZM469.305 75.9365C469.079 77.7359 468.763 79.5228 468.358 81.2905C467.765 84.1926 466.538 86.927 464.764 89.2972C462.913 91.6513 460.4 93.3958 457.55 94.306C456.38 94.7147 455.175 95.0161 453.951 95.2065C452.696 95.4061 451.428 95.507 450.158 95.5084C448.886 95.5072 447.616 95.4063 446.36 95.2065C445.137 95.0167 443.934 94.7153 442.766 94.306C439.933 93.4012 437.441 91.6543 435.621 89.2972C433.869 86.9079 432.627 84.1823 431.974 81.2905C431.569 79.5228 431.253 77.7359 431.027 75.9365C430.794 74.0928 430.677 72.2362 430.677 70.3777C430.679 68.5548 430.78 66.7333 430.978 64.9213C431.188 63.0878 431.528 61.2716 431.995 59.4865V59.5889C432.708 56.7072 433.963 53.9881 435.691 51.5769C437.483 49.2074 439.961 47.4505 442.787 46.5464C443.955 46.1372 445.158 45.8358 446.381 45.646C447.637 45.4462 448.907 45.3452 450.179 45.3441C451.45 45.3455 452.718 45.4464 453.972 45.646C455.189 45.8377 456.387 46.139 457.55 46.5464C460.405 47.4048 462.92 49.1375 464.743 51.5014C466.515 53.9025 467.741 56.6628 468.337 59.5889C468.741 61.3566 469.057 63.1435 469.283 64.9429C469.517 66.7523 469.633 68.5749 469.633 70.3993C469.642 72.2502 469.532 74.0997 469.305 75.9365ZM236.284 113.199L236.51 130.031L226.945 113.199H220.726V136.62H225.772L225.541 118.908L235.601 136.62H241.277V113.199H236.284ZM255.684 117.28H263.754V113.199L255.582 113.231C252.042 113.231 249.39 114.101 247.625 115.84C245.861 117.58 244.856 120.299 244.613 123.998C244.613 124.322 244.575 124.65 244.564 124.974C244.553 125.297 244.564 125.643 244.564 125.988C244.606 127.592 244.89 129.181 245.409 130.7C245.928 132.236 246.879 133.59 248.147 134.598C249.148 135.43 250.338 136.002 251.612 136.264C252.873 136.505 254.154 136.624 255.437 136.62H263.738V132.544L255.668 132.576H255.378C254.671 132.577 253.967 132.507 253.274 132.366C252.578 132.221 251.953 131.84 251.504 131.288C250.974 130.689 250.602 129.966 250.423 129.185C250.238 128.404 250.145 127.604 250.149 126.802H263.787V122.726L250.181 122.758C250.288 121.016 250.783 119.674 251.676 118.73C252.57 117.787 253.882 117.302 255.684 117.28ZM283.386 113.199V127.26C283.386 129.215 283.043 130.684 282.358 131.665C281.673 132.646 280.269 133.135 278.146 133.132C276.021 133.132 274.606 132.641 273.912 131.665C273.218 130.689 272.873 129.206 272.873 127.228V113.209H267.988V128.204C267.988 128.489 267.988 128.743 268.021 129.023C268.04 129.84 268.139 130.652 268.317 131.449C268.493 132.257 268.835 133.02 269.323 133.687C270.014 134.648 270.961 135.395 272.056 135.844C273.158 136.299 274.322 136.586 275.509 136.696C275.967 136.76 276.413 136.803 276.86 136.825C277.306 136.846 277.731 136.857 278.146 136.857C278.56 136.857 279.023 136.857 279.48 136.825C279.937 136.793 280.389 136.76 280.846 136.696C282.016 136.564 283.161 136.266 284.246 135.811C285.323 135.371 286.255 134.637 286.936 133.692C287.426 133.023 287.775 132.262 287.964 131.455C288.149 130.659 288.254 129.846 288.276 129.029C288.276 128.764 288.308 128.489 288.308 128.209V113.199H283.386ZM308.612 126.883C310.076 126.603 311.37 125.754 312.211 124.521C313.001 123.257 313.391 121.784 313.33 120.294C313.33 120.143 313.33 119.992 313.33 119.841C313.33 119.685 313.33 119.534 313.33 119.383C313.267 118.577 313.085 117.785 312.792 117.032C312.499 116.268 312.038 115.581 311.442 115.021C310.819 114.384 310.04 113.923 309.182 113.684C308.327 113.445 307.449 113.302 306.562 113.258C306.32 113.258 306.089 113.225 305.863 113.225C305.637 113.225 305.4 113.225 305.164 113.193H293.053V136.62H297.971V127.422H303.765L308.903 136.62H314.444L308.612 126.883ZM307.1 122.855C306.186 123.182 305.22 123.342 304.249 123.33H304.12C304.075 123.329 304.031 123.318 303.991 123.297H297.971V117.377H303.991V117.409C305.01 117.397 306.026 117.539 307.004 117.83C307.904 118.114 308.354 118.951 308.354 120.343C308.375 121.69 307.956 122.526 307.1 122.839V122.855ZM339.159 122.251C339.047 121.414 338.88 120.586 338.659 119.771C338.211 118.186 337.371 116.739 336.216 115.565C335.026 114.432 333.552 113.642 331.95 113.279C331.245 113.083 330.525 112.942 329.798 112.859C329.052 112.773 328.3 112.741 327.549 112.762C326.853 112.762 326.158 112.805 325.467 112.891C324.789 112.975 324.116 113.093 323.45 113.247C321.837 113.618 320.352 114.413 319.146 115.549C317.974 116.715 317.099 118.146 316.596 119.722V119.755C316.339 120.557 316.159 121.382 316.058 122.219C315.947 123.113 315.891 124.013 315.891 124.915C315.891 125.816 315.952 126.717 316.074 127.611C316.187 128.458 316.361 129.296 316.596 130.118C317.032 131.731 317.886 133.201 319.071 134.377C320.286 135.5 321.783 136.271 323.402 136.609C324.056 136.765 324.719 136.886 325.387 136.97C326.056 137.057 326.73 137.1 327.404 137.1C328.155 137.1 328.906 137.063 329.653 136.987C330.379 136.915 331.098 136.789 331.805 136.609C333.435 136.277 334.943 135.505 336.168 134.377C337.357 133.202 338.214 131.732 338.654 130.118C338.904 129.286 339.084 128.435 339.192 127.573C339.305 126.664 339.361 125.749 339.358 124.834C339.353 123.964 339.286 123.095 339.159 122.235V122.251ZM333.855 126.769C333.779 127.366 333.677 127.948 333.548 128.516C333.353 129.462 332.953 130.353 332.375 131.126C331.773 131.888 330.956 132.452 330.03 132.743C329.649 132.881 329.257 132.98 328.857 133.04C328.447 133.105 328.034 133.137 327.619 133.137C327.207 133.137 326.795 133.104 326.387 133.04C325.988 132.98 325.595 132.881 325.215 132.743C324.292 132.454 323.479 131.89 322.885 131.126C322.313 130.342 321.908 129.448 321.696 128.5C321.567 127.936 321.465 127.354 321.389 126.753C321.314 126.152 321.276 125.547 321.276 124.942C321.277 124.349 321.309 123.757 321.373 123.168C321.438 122.568 321.546 121.973 321.696 121.389V121.421C321.927 120.476 322.336 119.585 322.901 118.795C323.489 118.031 324.296 117.467 325.215 117.178C325.596 117.045 325.988 116.947 326.387 116.886C326.795 116.822 327.207 116.79 327.619 116.789C328.034 116.789 328.447 116.822 328.857 116.886C329.261 116.946 329.659 117.044 330.046 117.178C330.977 117.459 331.797 118.024 332.391 118.795C332.968 119.574 333.368 120.471 333.564 121.421C333.693 121.985 333.796 122.567 333.871 123.168C333.945 123.756 333.983 124.349 333.984 124.942C333.979 125.548 333.936 126.153 333.855 126.753V126.769ZM363.509 129.023C363.509 128.813 363.482 128.603 363.46 128.387C363.397 127.67 363.232 126.966 362.971 126.295C362.72 125.636 362.319 125.045 361.798 124.57C361.254 124.033 360.581 123.645 359.845 123.443C359.113 123.239 358.361 123.114 357.602 123.071C357.342 123.045 357.082 123.032 356.822 123.033C356.558 123.033 356.311 123.033 356.074 123.001L349.559 123.033C348.8 123.048 348.053 122.844 347.407 122.445C347.092 122.232 346.839 121.938 346.677 121.594C346.514 121.249 346.446 120.868 346.481 120.488C346.481 119.297 346.842 118.482 347.557 118.062C348.382 117.611 349.308 117.381 350.247 117.393H362.39V113.199L349.532 113.231C347.043 113.231 345.07 113.727 343.614 114.719C342.158 115.711 341.401 117.564 341.344 120.278C341.322 122.866 342.011 124.663 343.409 125.67C344.808 126.676 346.713 127.161 349.123 127.125L354.917 127.158C355.702 127.161 356.482 127.293 357.225 127.546C357.876 127.788 358.258 128.419 358.366 129.438C358.516 130.743 358.199 131.595 357.408 131.951C356.522 132.345 355.557 132.53 354.589 132.49H342.285V136.663H355.331C357.842 136.663 359.815 136.18 361.249 135.213C362.684 134.246 363.432 132.404 363.493 129.686C363.525 129.422 363.52 129.212 363.509 129.007V129.023ZM372.251 119.577C372.943 118.035 374.473 117.251 376.84 117.226H384.91V113.199L376.743 113.231C373.203 113.231 370.549 114.101 368.781 115.84C367.013 117.58 366.01 120.299 365.774 123.998C365.774 124.322 365.736 124.65 365.725 124.974C365.704 125.312 365.704 125.65 365.725 125.988C365.767 127.592 366.052 129.181 366.57 130.7C367.094 132.237 368.048 133.59 369.319 134.598C370.321 135.429 371.51 136.001 372.784 136.264C374.045 136.505 375.326 136.624 376.609 136.62H384.921V132.544L376.851 132.576H376.555C375.85 132.577 375.147 132.507 374.457 132.366C373.753 132.215 373.117 131.836 372.649 131.288C372.152 130.729 371.784 130.066 371.573 129.347C371.354 128.62 371.211 127.871 371.148 127.114C371.148 126.742 371.116 126.381 371.116 126.036V124.958C371.133 123.101 371.519 121.266 372.251 119.561V119.577ZM388.558 113.215V136.62H393.701V113.199L388.558 113.215ZM408.184 117.296H416.254V113.199L408.081 113.231C404.549 113.231 401.896 114.101 400.125 115.84C398.353 117.58 397.349 120.299 397.112 123.998C397.112 124.322 397.074 124.65 397.063 124.974C397.053 125.297 397.063 125.643 397.063 125.988C397.107 127.592 397.392 129.181 397.908 130.7C398.43 132.235 399.38 133.588 400.646 134.598C401.647 135.43 402.837 136.002 404.111 136.264C405.372 136.505 406.653 136.624 407.936 136.62H416.237V132.544L408.168 132.576H407.877C407.171 132.577 406.466 132.507 405.773 132.366C405.078 132.219 404.453 131.839 404.003 131.288C403.46 130.698 403.073 129.98 402.879 129.201C402.694 128.42 402.602 127.62 402.605 126.818H416.243V122.726L402.637 122.758C402.644 121.28 403.174 119.853 404.133 118.73C405.036 117.781 406.381 117.302 408.184 117.28V117.296ZM436.111 113.215L436.342 130.048L426.771 113.215H420.552V136.62H425.599L425.373 118.908L435.428 136.62H441.125V113.199L436.111 113.215ZM450.922 119.577C451.618 118.035 453.147 117.251 455.511 117.226H463.581V113.199L455.409 113.231C451.872 113.231 449.22 114.101 447.452 115.84C445.684 117.58 444.679 120.299 444.439 123.998C444.439 124.322 444.401 124.65 444.391 124.974C444.38 125.297 444.391 125.643 444.391 125.988C444.434 127.593 444.72 129.181 445.241 130.7C445.758 132.236 446.707 133.589 447.974 134.598C448.975 135.429 450.165 136.001 451.438 136.264C452.699 136.505 453.98 136.624 455.263 136.62H463.565V132.544L455.495 132.576H455.204C454.5 132.577 453.797 132.507 453.106 132.366C452.402 132.215 451.766 131.836 451.298 131.288C450.803 130.727 450.436 130.064 450.222 129.347C450.007 128.619 449.867 127.871 449.803 127.114C449.803 126.742 449.77 126.381 449.77 126.036V124.958C449.795 123.1 450.187 121.266 450.922 119.561V119.577ZM476.831 117.296H484.901V113.199L476.729 113.231C473.193 113.231 470.541 114.101 468.772 115.84C467.004 117.58 466 120.299 465.76 123.998C465.76 124.322 465.722 124.65 465.711 124.974C465.7 125.297 465.711 125.643 465.711 125.988C465.754 127.593 466.041 129.181 466.561 130.7C467.079 132.236 468.028 133.589 469.294 134.598C470.296 135.429 471.485 136.001 472.759 136.264C474.02 136.505 475.301 136.624 476.584 136.62H484.885V132.544L476.815 132.576H476.525C475.82 132.577 475.117 132.507 474.427 132.366C473.73 132.22 473.103 131.839 472.651 131.288C472.112 130.69 471.729 129.968 471.538 129.185C471.352 128.404 471.26 127.604 471.263 126.802H484.901V122.726L471.296 122.758C471.302 121.28 471.832 119.853 472.791 118.73C473.69 117.781 475.035 117.302 476.831 117.28V117.296ZM170.176 121.07C177.17 92.2248 163.349 76.6051 129.385 69.9356C110.018 66.1237 37.8515 80.0181 49.6497 45.6137C55.8958 27.3844 80.6273 19.4694 115.285 19.6904C167.109 23.4646 196.387 48.4281 196.968 83.3124C185.444 45.948 153.165 30.1323 100.129 35.8655C94.5935 36.4586 67.667 41.8934 78.1417 50.6603C85.9964 52.046 97.1436 49.2099 102.97 48.8217C104.584 48.7139 106.198 48.6492 107.764 48.5953C128.804 47.9375 154.994 51.1833 171.144 66.0805C188.593 82.1729 188.278 100.506 170.198 121.081L170.176 121.07ZM157.533 102.949C166.927 122.569 149.124 155.081 115.532 170.016C133.194 153 140.473 136.911 138.617 121.761C134.539 88.4614 74.9998 105.855 52.8829 103.488C19.9973 99.9619 2.37805 87.4945 0.0252327 66.0859C-0.781755 40.3101 15.792 21.2828 49.7465 9.0041C66.0423 1.59052 83.7583 -0.161775 103.131 -2.44193e-05C139.277 0.291127 166.819 12.054 185.756 35.2886C150.087 9.20359 112.588 1.68758 73.2567 12.7405C70.6923 13.4594 68.1189 14.2592 65.5365 15.1398C24.1972 30.0964 11.9795 60.8129 44.5925 78.9505C59.9038 87.038 85.3938 84.7412 102.54 84.2829C119.766 83.8192 148.742 84.4932 157.555 102.96L157.533 102.949Z" fill="black"/>
</g>
<defs>
<clipPath id="clip0_554_2857">
<rect width="486.14" height="170" fill="white"/>
</clipPath>
</defs>
</svg>
